<?xml version="1.0" encoding="iso-8859-1"?>
<!-- Generator: Adobe Illustrator 19.0.0, SVG Export Plug-In . SVG Version: 6.00 Build 0)  -->
<svg version="1.1" id="Layer_1" xmlns="http://www.w3.org/2000/svg" xmlns:xlink="http://www.w3.org/1999/xlink" x="0px" y="0px"
	 viewBox="0 0 512 512" style="enable-background:new 0 0 512 512;" xml:space="preserve">
<path style="fill:#DF4D60;" d="M476.056,281.161v38.938H359.432v-9.98c0-15.995,12.963-28.958,28.958-28.958L476.056,281.161
	L476.056,281.161z"/>
<rect x="232.025" y="200.874" style="fill:#C0BFD4;" width="47.936" height="220.463"/>
<path style="fill:#DF4D60;" d="M152.568,310.119v9.98H35.945v-38.938h87.665C139.604,281.161,152.568,294.125,152.568,310.119z"/>
<path d="M394.585,212.857c6.616,0,11.981-5.364,11.981-11.981s-5.365-11.981-11.981-11.981H279.962h-47.936H117.44
	c-6.616,0-11.981,5.364-11.981,11.981s5.365,11.981,11.981,11.981h102.607v208.482c0,6.617,5.365,11.981,11.981,11.981h47.936
	c6.616,0,11.981-5.364,11.981-11.981V212.857H394.585z M267.981,409.358h-23.974V212.857h23.974V409.358z"/>
<path d="M501.513,78.775c-6.557-0.821-12.556,3.826-13.383,10.391l-0.563,4.473c-0.826,6.566,3.827,12.557,10.392,13.383
	c0.508,0.063,1.011,0.095,1.511,0.095c5.95,0,11.11-4.429,11.872-10.486l0.563-4.473C512.731,85.592,508.079,79.601,501.513,78.775z
	"/>
<path d="M496.432,119.175c-6.567-0.822-12.556,3.827-13.383,10.392L465.487,269.18h-77.097c-22.575,0-40.939,18.366-40.939,40.939
	v9.98v101.24c0,6.617,5.365,11.981,11.981,11.981c6.616,0,11.981-5.364,11.981-11.981V332.08h92.661v89.259
	c0,6.617,5.365,11.981,11.981,11.981s11.981-5.364,11.981-11.981v-101.24v-38.187l18.787-149.353
	C507.65,125.993,502.996,120.002,496.432,119.175z M388.391,293.142h75.684v14.976h-92.544
	C372.524,299.696,379.706,293.142,388.391,293.142z"/>
<path d="M123.61,269.18H46.513L23.87,89.167c-0.824-6.564-6.809-11.218-13.383-10.392C3.923,79.601-0.731,85.592,0.095,92.158
	l23.869,189.754v38.187v101.24c0,6.617,5.365,11.981,11.981,11.981c6.616,0,11.981-5.364,11.981-11.981V332.08h92.661v89.259
	c0,6.617,5.365,11.981,11.981,11.981c6.616,0,11.981-5.364,11.981-11.981v-101.24v-9.98
	C164.549,287.545,146.184,269.18,123.61,269.18z M47.926,308.118v-14.976h75.684c8.685,0,15.866,6.554,16.86,14.976H47.926z"/>
<g>
</g>
<g>
</g>
<g>
</g>
<g>
</g>
<g>
</g>
<g>
</g>
<g>
</g>
<g>
</g>
<g>
</g>
<g>
</g>
<g>
</g>
<g>
</g>
<g>
</g>
<g>
</g>
<g>
</g>
</svg>
